PathFileType	4	(X/Y/Z)	walk-thru1-5-TP.trc
DataRate	CameraRate	NumFrames	NumMarkers	Units	OrigDataRate	OrigDataStartFrame	OrigNumFrames
120.00	120.00	       4	60	mm	120.00	284	       454
Frame#	Time	Top.Head			Front.Head			Rear.Head			Jaw			C7			R.Clavicle			L.Clavicle			R.Shoulder			L.Shoulder			R.Scapula			L.Scapula			R.Scap.Inf			R.Biceps.Lateral			R.Elbow			R.Elbow.Medial			R.Forearm			R.Ulna			R.Radius			R.Wrist			R.Thumb.M1			R.Thumb.M2			R.Thumb.M3			R.Finger3.M1			R.Finger3.M2			R.Finger3.M3			L.Biceps.Lateral			L.Elbow			L.Elbow.Medial			L.Forearm			L.Ulna			L.Radius			L.Wrist			L.Thumb.M1			L.Thumb.M2			L.Thumb.M3			L.Finger3.M1			L.Finger3.M2			L.Finger3.M3			V.Sacral			R.ASIS			L.ASIS			R.Thigh			R.Thigh.Front			R.Knee			R.Knee.Medial			R.Shank			R.Ankle			R.Ankle.Medial			R.Heel			R.Toe			R.MedFoot			L.Thigh			L.Knee			L.Knee.Medial			L.Shank			L.Ankle			L.Ankle.Medial			L.Heel			L.Toe			L.MedFoot			V_mid_ASIS			V_R_Knee_JC			V_L_Knee_JC			V_R_Elbow_JC			V_L_Elbow_JC			V_R_Ankle_JC			V_L_Ankle_JC			V_R_Wrist_JC			V_L_Wrist_JC			V_R_ScaTrpz_1stMC_JC			V_R_1stMC_1stPP_JC			V_R_1stPP_1stDP_JC			V_R_LunCap_3rdMC_JC			V_R_3rdMC_3rdPP_JC			V_R_3rdPP_3rdMP_JC			V_R_3rdMP_3rdDP_JC			V_L_ScaTrpz_1stMC_JC			V_L_1stMC_1stPP_JC			V_L_1stPP_1stDP_JC			V_L_LunCap_3rdMC_JC			V_L_3rdMC_3rdPP_JC			V_L_3rdPP_3rdMP_JC			V_L_3rdMP_3rdPP_JC			V_ROOT_JC			V_R_Hip_JC			V_L_Hip_JC			V_R_GlenHum_JC			V_L_GlenHum_JC			V_ForeHead_Ctr			V_Vertex			V_Sagit_Lambdoid_Suture			V_R_FrontoTemp			V_L_FrontoTemporal			V_R_ParietalOccip			V_L_ParietalOcciptal			V_R_Temporal			V_L_Temporal			V_mid_FrontRearHead			V_mid_RLGlenHumCtrs			V_C7_vert			V_C1_vert			V_Mid_Hip			
		X1	Y1	Z1	X2	Y2	Z2	X3	Y3	Z3	X4	Y4	Z4	X5	Y5	Z5	X6	Y6	Z6	X7	Y7	Z7	X8	Y8	Z8	X9	Y9	Z9	X10	Y10	Z10	X11	Y11	Z11	X12	Y12	Z12	X13	Y13	Z13	X14	Y14	Z14	X15	Y15	Z15	X16	Y16	Z16	X17	Y17	Z17	X18	Y18	Z18	X19	Y19	Z19	X20	Y20	Z20	X21	Y21	Z21	X22	Y22	Z22	X23	Y23	Z23	X24	Y24	Z24	X25	Y25	Z25	X26	Y26	Z26	X27	Y27	Z27	X28	Y28	Z28	X29	Y29	Z29	X30	Y30	Z30	X31	Y31	Z31	X32	Y32	Z32	X33	Y33	Z33	X34	Y34	Z34	X35	Y35	Z35	X36	Y36	Z36	X37	Y37	Z37	X38	Y38	Z38	X39	Y39	Z39	X40	Y40	Z40	X41	Y41	Z41	X42	Y42	Z42	X43	Y43	Z43	X44	Y44	Z44	X45	Y45	Z45	X46	Y46	Z46	X47	Y47	Z47	X48	Y48	Z48	X49	Y49	Z49	X50	Y50	Z50	X51	Y51	Z51	X52	Y52	Z52	X53	Y53	Z53	X54	Y54	Z54	X55	Y55	Z55	X56	Y56	Z56	X57	Y57	Z57	X58	Y58	Z58	X59	Y59	Z59	X60	Y60	Z60	

284	2.358	-78.52686	-76.56781	1560.56262	-176.78851	-65.72218	1457.47363	35.60825	-79.37169	1481.86780	-142.19623	-52.89007	1318.08020	55.55677	-65.69883	1375.04590	-11.71437	53.13182	1280.43494	-47.21995	-160.23024	1288.06689	47.50834	122.88899	1279.31787	-8.19846	-257.78928	1291.89685	115.57611	13.96617	1302.05933	96.97066	-167.34058	1302.37317	165.32039	-8.76625	1222.03259	50.66402	175.27281	1136.83142	103.02470	190.26129	981.41931	127.80084	115.92011	968.80994	36.04236	185.88309	896.48145	78.63929	210.03873	816.32507	18.39010	168.43813	760.05481	29.87424	208.20741	729.38885	1.35401	171.15828	705.28192	-5.95991	160.26559	667.51740	-5.76594	153.35951	625.18292	21.18285	229.39876	654.39423	26.93774	212.91855	602.63922	46.32584	191.56090	571.63910	10.41685	-325.72534	1150.51819	62.85607	-345.26511	1007.44000	95.34205	-269.66098	1000.08484	-20.28373	-314.21231	943.91724	-18.51603	-352.58560	854.36737	-62.79396	-289.93295	814.52661	-80.09772	-336.29279	791.70392	-96.39770	-291.77393	781.61469	-109.68592	-271.59073	743.60272	-116.08760	-271.13449	689.87537	-117.00797	-338.84006	712.45404	-124.12784	-332.44275	672.78839	-115.68981	-306.83374	632.65271	187.03638	-63.76781	913.71204	-4.01736	90.89841	968.30078	-0.10501	-226.90218	954.53265	-76.89167	137.29797	595.85272	-173.57668	65.11616	528.36963	-137.59047	105.40430	464.53589	-148.46968	-8.63288	460.77222	-144.87683	60.57151	294.46060	-76.86466	78.98340	78.02860	-99.88306	-11.39662	94.81184	-23.39817	18.78599	46.02548	-214.58806	65.79625	59.30151	-169.27647	19.67051	80.34693	43.07076	-241.87238	579.56750	43.16980	-211.22066	442.93085	25.83735	-91.46254	424.65054	62.64312	-153.15269	248.00459	154.31467	-171.31546	67.61968	135.98711	-80.97351	83.44229	212.69106	-120.44769	45.78637	7.10319	-142.55478	39.51402	63.10756	-105.53186	62.15215																																																																																																																															
285	2.367	-83.99253	-73.98197	1559.41479	-182.33823	-64.62357	1456.94568	30.21996	-79.15264	1481.13464	-147.11508	-52.68011	1316.51770	50.74720	-64.53175	1375.16638	-17.31558	54.24515	1279.85022	-52.17070	-159.44556	1287.23889	42.90109	124.34581	1278.47266	-13.79234	-256.98740	1291.57666	110.69807	14.84150	1300.56763	91.64986	-166.10623	1301.32947	159.76643	-8.10043	1221.28796	46.33152	175.90681	1135.78259	97.86755	189.43982	980.91968	122.68848	114.91122	968.52985	33.17235	186.59158	895.17664	76.04107	210.44894	815.21600	17.05987	168.00847	758.52533	27.50708	208.28432	728.09961	-1.11772	172.68140	704.36786	-6.82324	160.76459	666.76538	-6.84421	153.36009	622.90442	18.77337	230.51199	654.49628	25.11698	213.89291	601.41022	45.24802	193.67096	570.68359	4.44554	-323.22900	1149.45581	58.31242	-343.35226	1006.44232	90.78450	-268.57983	998.93896	-25.79572	-314.19760	942.54932	-23.52716	-352.51517	853.51080	-67.94080	-289.50101	813.46613	-84.48592	-336.14175	790.93341	-101.51524	-291.09204	779.62201	-113.66298	-270.49744	742.68567	-120.71320	-271.48819	688.88745	-120.83759	-337.84753	711.30780	-128.87752	-331.48083	671.33234	-120.32067	-308.02490	631.25897	181.78096	-61.22577	913.09082	-9.68987	92.07919	967.68073	-4.56574	-226.16437	954.52850	-81.74129	138.35915	594.67200	-178.72240	65.60119	528.25671	-143.26978	107.78207	465.54642	-151.92963	-8.00406	460.66931	-154.08908	61.56126	294.99130	-92.01299	80.08831	77.04223	-113.63636	-9.97215	94.35176	-38.82649	21.18079	44.41188	-230.74203	65.66137	58.98198	-183.81487	20.47908	79.53468	39.92233	-241.29285	579.17950	41.64692	-209.00011	441.60117	24.09073	-91.12276	424.35129	61.94658	-152.43880	247.35275	154.23125	-170.98573	67.72149	136.34488	-80.79238	83.14194	212.70935	-119.96986	46.02956	6.95283	-142.68422	39.63451	63.03687	-105.25078	62.26685																																																																																																																															
286	2.375	-89.35677	-72.79536	1559.06592	-187.41383	-62.80283	1455.41077	24.97679	-77.93046	1480.25488	-151.91698	-51.40338	1315.85254	45.69547	-64.47830	1373.41211	-22.13398	55.89083	1278.98328	-57.47961	-158.83612	1286.47693	37.49184	125.64415	1277.11755	-18.80804	-256.11542	1291.15161	105.42520	15.75174	1299.87927	87.10355	-165.24295	1300.57935	155.12297	-6.20899	1220.60315	41.57259	176.90445	1135.36182	94.98894	190.41891	979.78198	118.35503	115.90912	968.42749	29.96078	187.19171	893.68134	73.23225	211.02940	815.13452	13.45901	169.36084	757.48004	24.83075	209.60260	727.40778	-2.13044	174.00662	702.92767	-10.19935	161.89943	665.29443	-8.28349	154.58745	622.20831	17.74748	231.54475	653.84534	23.81276	216.65456	600.72211	42.74198	196.24814	569.90204	-1.38804	-322.55896	1147.52649	52.02630	-342.26575	1006.21112	84.51328	-267.19559	998.62848	-29.82230	-312.98749	942.70068	-27.86093	-350.86716	852.19531	-73.12467	-288.75723	813.11359	-89.55748	-335.18011	789.36450	-106.03991	-291.61133	778.48462	-118.96112	-270.81039	742.33136	-123.88110	-270.99081	686.48615	-125.22358	-338.12167	709.49133	-133.10049	-330.92453	669.77740	-124.20750	-306.88638	630.30902	175.83366	-61.21979	912.38867	-14.87273	92.95609	966.99359	-10.75458	-224.94833	954.41895	-85.94167	139.27254	593.82910	-183.68883	65.94753	528.11371	-148.87502	107.88494	464.86343	-157.32135	-7.60735	459.27533	-163.18335	61.80302	295.22006	-105.80670	81.60758	75.59119	-127.86420	-9.33424	93.63604	-53.44435	22.95378	42.54539	-244.80368	63.95527	58.85595	-197.52522	21.00107	79.13449	36.69353	-240.78731	578.31305	38.78530	-208.77296	441.09317	21.22841	-90.60152	424.00641	60.68105	-152.44511	246.70810	154.17725	-170.70084	68.11050	135.94942	-80.41904	83.65354	212.81412	-119.73866	46.11897	6.91134	-142.84641	39.47988	63.71169	-104.28413	61.78400																																																																																																																															
287	2.383	-93.77647	-73.06052	1557.68616	-192.65723	-61.91407	1455.23499	20.18777	-76.69637	1480.33472	-157.63918	-50.20818	1314.82837	39.69305	-61.64971	1373.02173	-27.45061	56.40514	1278.31470	-61.86552	-157.29828	1286.03381	32.71110	126.17322	1276.89392	-23.07130	-254.87311	1289.98608	100.49983	17.38629	1299.22388	82.50759	-163.33072	1300.11340	150.28362	-4.59283	1220.33313	36.86442	177.17792	1133.96936	90.97962	191.71570	978.81677	113.29420	117.59364	967.84290	25.50339	187.96275	892.64832	69.92013	212.89072	814.92609	9.69365	171.49283	756.90985	23.21759	211.17157	726.96899	-5.75648	175.60594	701.78809	-12.74292	164.00851	664.55060	-11.78929	157.96609	622.07672	15.53928	233.58504	652.55273	21.00233	218.05064	600.42096	41.23739	196.90329	569.28815	-6.75041	-320.10431	1146.52893	47.50915	-341.12332	1004.68781	80.16795	-265.31342	997.69000	-35.72334	-311.41663	941.07660	-32.48238	-350.25015	851.12311	-78.27569	-287.89813	811.54712	-93.33083	-334.93747	787.78839	-112.40806	-291.34686	777.54285	-125.77557	-270.53333	740.70947	-128.11880	-272.12677	684.62842	-128.46497	-336.56448	707.84943	-135.97493	-329.84912	668.27216	-128.62067	-303.75494	628.10547	170.88681	-61.13855	911.99640	-20.27662	93.73131	966.72571	-15.76597	-224.28342	953.07587	-90.79533	141.19945	592.95905	-188.81656	66.24699	528.27502	-154.66353	107.76109	464.93536	-161.06555	-8.49793	458.53677	-171.54898	61.52303	295.43649	-121.34555	83.67543	74.34116	-140.58960	-8.18572	92.75571	-66.23632	24.87151	41.25284	-257.99210	64.03929	59.12929	-210.79070	22.26317	79.02007	33.21313	-239.81721	578.10455	37.62305	-208.43739	440.53497	18.74430	-89.15051	422.95264	59.43163	-151.91302	246.51311	153.90923	-170.58466	68.51338	136.13934	-80.60883	82.99396	212.66295	-119.64300	46.21050	6.92491	-142.99725	39.52533	63.03392	-104.80084	61.41885																																																																																																																															
